<svg aria-hidden="true" style="position: absolute; width: 0; height: 0; overflow: hidden;" version="1.1" xmlns="http://www.w3.org/2000/svg" xmlns:xlink="http://www.w3.org/1999/xlink">
<defs>
<symbol id="back" viewBox="0 0 32 32">
<path d="M28 14h-19.2l4.62-4.62c0.394-0.394 0.58-0.864 0.58-1.38 0-0.984-0.813-2-2-2-0.531 0-0.994 0.193-1.38 0.58l-7.958 7.958c-0.328 0.328-0.662 0.733-0.662 1.462s0.279 1.080 0.646 1.447l7.974 7.973c0.386 0.387 0.849 0.58 1.38 0.58 1.188 0 2-1.016 2-2 0-0.516-0.186-0.986-0.58-1.38l-4.62-4.62h19.2c1.104 0 2-0.896 2-2s-0.896-2-2-2z"></path>
</symbol>
<symbol id="cross" viewBox="0 0 32 32">
<path d="M30.886 2.898l-1.767-1.769-13.119 13.103-13.111-13.111-1.768 1.768 13.11 13.109-13.118 13.102 1.767 1.769 13.119-13.103 13.111 13.111 1.768-1.768-13.11-13.11z"></path>
</symbol>
<symbol id="share" viewBox="0 0 32 32">
<path stroke-linejoin="round" stroke-linecap="round" stroke-miterlimit="4" stroke-width="2.6667" d="M28 6.667c0 2.209-1.791 4-4 4s-4-1.791-4-4c0-2.209 1.791-4 4-4s4 1.791 4 4z"></path>
<path stroke-linejoin="round" stroke-linecap="round" stroke-miterlimit="4" stroke-width="2.6667" d="M12 16c0 2.209-1.791 4-4 4s-4-1.791-4-4c0-2.209 1.791-4 4-4s4 1.791 4 4z"></path>
<path stroke-linejoin="round" stroke-linecap="round" stroke-miterlimit="4" stroke-width="2.6667" d="M28 25.333c0 2.209-1.791 4-4 4s-4-1.791-4-4c0-2.209 1.791-4 4-4s4 1.791 4 4z"></path>
<path stroke-linejoin="round" stroke-linecap="round" stroke-miterlimit="4" stroke-width="2.6667" d="M11.453 18.013l9.107 5.307"></path>
<path stroke-linejoin="round" stroke-linecap="round" stroke-miterlimit="4" stroke-width="2.6667" d="M20.547 8.68l-9.093 5.307"></path>
</symbol>
<symbol id="heart" viewBox="0 0 32 32">
<path d="M29.714 10.643q0-1.446-0.384-2.554t-0.982-1.759-1.455-1.063-1.679-0.554-1.75-0.143-2 0.455-1.973 1.143-1.545 1.286-1.071 1.098q-0.321 0.393-0.875 0.393t-0.875-0.393q-0.429-0.5-1.071-1.098t-1.545-1.286-1.973-1.143-2-0.455-1.75 0.143-1.679 0.554-1.455 1.063-0.982 1.759-0.384 2.554q0 3 3.339 6.339l10.375 10 10.357-9.982q3.357-3.357 3.357-6.357zM32 10.643q0 3.946-4.089 8.036l-11.125 10.714q-0.321 0.321-0.786 0.321t-0.786-0.321l-11.143-10.75q-0.179-0.143-0.491-0.464t-0.991-1.17-1.214-1.741-0.955-2.161-0.42-2.464q0-3.929 2.268-6.143t6.268-2.214q1.107 0 2.259 0.384t2.143 1.036 1.705 1.223 1.357 1.214q0.643-0.643 1.357-1.214t1.705-1.223 2.143-1.036 2.259-0.384q4 0 6.268 2.214t2.268 6.143z"></path>
</symbol>
</defs>
</svg>