<?xml version="1.0"?>
<svg version="1.1" xmlns="http://www.w3.org/2000/svg" width="172" height="44" style=""><path fill="#ff8000" d="M15.861328125,24.3515625q0-0.90234375,0.0751953125-1.9755859375t0.2666015625-2.1533203125t0.57421875-2.0849609375t0.984375-1.791015625t1.4697265625-1.2509765625t2.0712890625-0.46484375q0.95703125,0,1.763671875,0.369140625t1.408203125,0.998046875t0.9365234375,1.4697265625t0.3349609375,1.7568359375q0,0.24609375-0.3349609375,0.3076171875t-0.4716796875,0.0615234375q-0.24609375,0-0.4716796875-0.041015625t-0.3349609375-0.328125q-0.19140625-0.533203125-0.4033203125-1.12109375t-0.51953125-1.0732421875t-0.7587890625-0.7998046875q-0.41015625-0.2734375-1.0390625-0.2734375l-0.109375,0q-1.1484375,0.02734375-1.708984375,0.8203125t-0.7724609375,1.927734375t-0.2119140625,2.40625l0,2.255859375q0,0.560546875,0.041015625,1.626953125t0.1982421875,2.32421875t0.41015625,2.5634765625t0.68359375,2.37890625t1.0322265625,1.75t1.44921875,0.6767578125q0.751953125,0,1.3125-0.51953125t0.9638671875-1.3330078125t0.68359375-1.818359375t0.46484375-2.0166015625t0.2802734375-1.8798828125t0.150390625-1.4287109375q-0.150390625-0.013671875-0.287109375-0.013671875q-0.642578125,0-1.2578125,0.205078125q-0.779296875,0.232421875-1.55859375,0.232421875q-0.109375,0-0.2939453125-0.013671875t-0.3486328125-0.068359375t-0.2939453125-0.1572265625t-0.1298828125-0.2666015625q0-0.314453125,0.6904296875-0.533203125t1.572265625-0.3759765625t1.7021484375-0.2255859375t1.080078125-0.068359375q0.13671875,0,0.3896484375,0.02734375t0.505859375,0.095703125t0.4306640625,0.1982421875t0.177734375,0.3212890625q0,0.1640625-0.123046875,0.2939453125t-0.3076171875,0.1982421875t-0.3759765625,0.095703125t-0.30078125,0.02734375q0.013671875,0.314453125,0.013671875,0.642578125q0,0.73828125-0.041015625,1.572265625q-0.068359375,1.203125-0.2734375,2.40625t-0.62890625,2.337890625t-1.080078125,2.0029296875t-1.6201171875,1.4013671875t-2.2900390625,0.533203125q-1.44921875,0-2.447265625-0.615234375t-1.626953125-1.640625t-0.9775390625-2.32421875t-0.4990234375-2.6591796875t-0.1845703125-2.6455078125t-0.0341796875-2.32421875z M31.18298828125,31.16015625q0-0.779296875,0.1982421875-1.6064453125t0.62890625-1.490234375t1.0869140625-1.080078125t1.5859375-0.4169921875q0.697265625,0,1.4697265625,0.2392578125t1.4150390625,0.68359375t1.0458984375,1.0869140625t0.4033203125,1.435546875q0,0.95703125-0.3486328125,1.818359375t-0.9775390625,1.5380859375t-1.4697265625,1.06640625t-1.8251953125,0.3896484375q-0.806640625,0-1.408203125-0.2939453125t-1.0048828125-0.7861328125t-0.6015625-1.162109375t-0.1982421875-1.421875z M33.19275390625,31.1328125q0,0.24609375,0.0751953125,0.724609375t0.2255859375,0.9365234375t0.3896484375,0.79296875t0.5810546875,0.3076171875q0.724609375-0.08203125,1.1962890625-0.4716796875t0.765625-0.9501953125t0.41015625-1.216796875t0.1162109375-1.244140625q0-0.751953125-0.2939453125-1.2578125t-0.9638671875-0.8203125q0,0.02734375,0.02734375,0.02734375t0.02734375-0.02734375l-0.341796875-0.08203125q-0.13671875-0.0546875-0.3349609375-0.123046875t-0.3896484375-0.30078125q-0.533203125,0.19140625-0.8271484375,0.4921875t-0.4443359375,0.7314453125t-0.1845703125,1.0322265625t-0.0341796875,1.44921875z M41.5417578125,35.80859375q0.0546875-2.857421875,0.2392578125-5.701171875t0.3212890625-5.701171875q0.02734375-1.09375,0.02734375-1.9892578125t0.0888671875-1.5517578125t0.328125-1.0048828125t0.7998046875-0.3486328125q0.478515625,0,0.724609375,0.13671875t0.3759765625,0.3486328125t0.1572265625,0.478515625t0.02734375,0.5400390625q0,0.396484375,0.02734375,0.7861328125t0.02734375,0.7861328125q0,2.884765625-0.1572265625,5.755859375t-0.1572265625,5.783203125q0,0.423828125,0.013671875,0.8544921875t0.013671875,0.8818359375q0,0.1640625-0.150390625,0.2734375t-0.3759765625,0.1845703125t-0.478515625,0.1025390625t-0.4169921875,0.02734375q-0.19140625,0-0.4306640625-0.02734375t-0.46484375-0.1162109375t-0.3828125-0.2119140625t-0.1572265625-0.287109375z M42.3073828125,17.26953125q0-0.13671875,0.041015625-0.3076171875t0.095703125-0.3076171875q0.02734375-0.1640625,0.08203125-0.560546875t0.1982421875-0.7724609375t0.396484375-0.669921875t0.7177734375-0.2939453125l0.259765625,0q0.21875,0.0546875,0.4443359375,0.13671875t0.2255859375,0.396484375q0,0.13671875-0.013671875,0.259765625t-0.041015625,0.2734375q-0.109375,0.806640625-0.2119140625,1.271484375t-0.2392578125,0.7041015625t-0.3486328125,0.3076171875t-0.5400390625,0.095703125q-0.109375,0-0.2939453125-0.013671875t-0.35546875-0.068359375t-0.2939453125-0.1708984375t-0.123046875-0.2802734375z M46.73255859375,16.544921875q0-0.19140625,0.2666015625-0.2939453125t0.3486328125-0.1025390625l0.505859375-0.08203125q0.505859375-0.08203125,1.025390625-0.1435546875t1.01171875-0.1162109375q1.736328125-0.21875,3.47265625-0.4306640625t3.5-0.2119140625q0.13671875,0,0.3759765625,0.013671875t0.478515625,0.0751953125t0.41015625,0.1708984375t0.1708984375,0.30078125q0,0.13671875-0.1298828125,0.2392578125t-0.3076171875,0.1572265625t-0.3623046875,0.068359375t-0.2939453125,0.013671875l-0.2392578125,0t-0.2392578125-0.0546875q-0.724609375,0-1.4287109375,0.068359375t-1.4287109375,0.123046875q0.19140625,0.21875,0.205078125,0.615234375t0.02734375,0.68359375q0,4.83984375,0.068359375,9.625t0.123046875,9.666015625l0,0.02734375q-0.451171875,0.396484375-0.7724609375,0.505859375t-0.6494140625,0.109375q-0.314453125,0-0.6357421875-0.1162109375t-0.7724609375-0.4990234375l0-0.02734375l0.109375-10.732421875q0-1.06640625-0.02734375-2.3515625t-0.02734375-2.6044921875t0.041015625-2.5498046875t0.21875-2.146484375q-0.806640625,0.08203125-1.708984375,0.24609375q-0.779296875,0.13671875-1.490234375,0.13671875l-0.24609375,0q-0.0546875,0-0.3212890625,0.013671875t-0.546875-0.013671875t-0.505859375-0.109375t-0.2255859375-0.2734375z"/><path fill="#ff8000" d="M65.24953125,33.40234375q0-0.478515625,0.328125-0.6083984375t0.7109375-0.1298828125q0.669921875,0,1.134765625,0.6015625t0.8818359375,1.3193359375t0.8271484375,1.3193359375t0.970703125,0.6015625q0.423828125,0,0.7724609375-0.2119140625t0.6015625-0.533203125t0.3896484375-0.724609375t0.13671875-0.7998046875q0-1.0390625-0.4169921875-2.146484375t-1.06640625-2.283203125t-1.3740234375-2.40625t-1.3671875-2.501953125t-1.06640625-2.5908203125t-0.423828125-2.6591796875q0-2.009765625,1.203125-3.1171875t3.171875-1.107421875q0.669921875,0,1.353515625,0.19140625t1.2578125,0.57421875t0.9365234375,0.943359375t0.3623046875,1.3125q0,0.24609375-0.3623046875,0.3212890625t-0.5263671875,0.0751953125q-0.24609375,0-0.533203125-0.0615234375t-0.369140625-0.3349609375t-0.232421875-0.62890625t-0.3759765625-0.6630859375t-0.533203125-0.533203125t-0.6767578125-0.2255859375q-0.615234375,0-1.0458984375,0.2529296875t-0.697265625,0.6767578125t-0.396484375,0.9501953125t-0.1298828125,1.0869140625q0,1.3125,0.451171875,2.6455078125t1.12109375,2.65234375t1.4560546875,2.6044921875t1.4560546875,2.501953125t1.12109375,2.37890625t0.451171875,2.201171875q0,0.9296875-0.4375,1.572265625t-1.107421875,1.0458984375t-1.4833984375,0.587890625t-1.5927734375,0.1845703125q-0.833984375,0-1.708984375-0.3349609375t-1.572265625-0.9228515625t-1.1484375-1.3740234375t-0.451171875-1.7021484375z M77.54970703125,32.390625l0-1.28515625q0-0.697265625,0.0341796875-1.9755859375t0.0888671875-2.802734375t0.150390625-3.1787109375t0.21875-3.1240234375t0.2939453125-2.6318359375t0.3896484375-1.72265625q0.13671875-0.314453125,0.451171875-0.396484375t0.615234375-0.08203125q0.478515625,0,0.8408203125,0.2119140625t0.3623046875,0.7724609375l-0.24609375,0.2734375q-0.478515625,3.158203125-0.615234375,6.34375t-0.19140625,6.37109375q0.341796875-0.533203125,0.7724609375-1.0458984375t0.95703125-0.9091796875t1.134765625-0.6357421875t1.3330078125-0.2392578125q0.9296875,0,1.5380859375,0.560546875t1.0048828125,1.4560546875t0.587890625,2.0029296875t0.2939453125,2.21484375t0.1435546875,2.0986328125t0.123046875,1.6474609375q-0.259765625,0.35546875-0.765625,0.35546875l-0.041015625,0q-0.21875,0-0.478515625-0.0546875t-0.341796875-0.2734375l0.02734375,0.02734375q-0.19140625-0.423828125-0.259765625-1.2236328125t-0.109375-1.763671875t-0.1435546875-1.9755859375t-0.3076171875-1.83203125t-0.6015625-1.353515625t-1.06640625-0.560546875l-0.08203125,0q-0.806640625,0-1.353515625,0.4921875q-0.57421875,0.51953125-0.9296875,1.3671875t-0.546875,1.88671875t-0.2939453125,2.0029296875t-0.1572265625,1.75t-0.13671875,1.1552734375q-0.08203125,0.314453125-0.4853515625,0.4169921875t-0.6904296875,0.1025390625q-0.669921875,0-1.09375-0.3828125q-0.314453125-0.751953125-0.369140625-1.873046875t-0.0546875-2.1875z M90.3557421875,31.16015625q0-0.779296875,0.1982421875-1.6064453125t0.62890625-1.490234375t1.0869140625-1.080078125t1.5859375-0.4169921875q0.697265625,0,1.4697265625,0.2392578125t1.4150390625,0.68359375t1.0458984375,1.0869140625t0.4033203125,1.435546875q0,0.95703125-0.3486328125,1.818359375t-0.9775390625,1.5380859375t-1.4697265625,1.06640625t-1.8251953125,0.3896484375q-0.806640625,0-1.408203125-0.2939453125t-1.0048828125-0.7861328125t-0.6015625-1.162109375t-0.1982421875-1.421875z M92.3655078125,31.1328125q0,0.24609375,0.0751953125,0.724609375t0.2255859375,0.9365234375t0.3896484375,0.79296875t0.5810546875,0.3076171875q0.724609375-0.08203125,1.1962890625-0.4716796875t0.765625-0.9501953125t0.41015625-1.216796875t0.1162109375-1.244140625q0-0.751953125-0.2939453125-1.2578125t-0.9638671875-0.8203125q0,0.02734375,0.02734375,0.02734375t0.02734375-0.02734375l-0.341796875-0.08203125q-0.13671875-0.0546875-0.3349609375-0.123046875t-0.3896484375-0.30078125q-0.533203125,0.19140625-0.8271484375,0.4921875t-0.4443359375,0.7314453125t-0.1845703125,1.0322265625t-0.0341796875,1.44921875z M100.71451171875,25.951171875q0-0.642578125,0.2529296875-0.9501953125t0.9228515625-0.3076171875q0.396484375,0,0.7451171875,0.1640625t0.3486328125,0.697265625q0.0546875,0.779296875,0.0546875,1.6337890625t0.150390625,1.6201171875q0.341796875-0.560546875,0.7724609375-1.12109375t0.9501953125-0.998046875t1.134765625-0.7041015625t1.33984375-0.2666015625q0.984375,0,1.66796875,0.41015625t1.1279296875,1.06640625t0.642578125,1.4833984375t0.1982421875,1.6611328125q0,1.28515625-0.3896484375,2.0986328125t-1.0322265625,1.2783203125t-1.4560546875,0.62890625t-1.6337890625,0.1640625q-0.724609375,0-1.353515625-0.2802734375t-0.875-1.0595703125q0-0.21875,0.3212890625-0.2734375t0.4580078125-0.0546875q0.451171875,0,0.669921875,0.24609375q0.1640625,0.19140625,0.3623046875,0.3896484375t0.4169921875,0.1982421875q0.423828125,0,0.888671875-0.2392578125t0.8544921875-0.62890625t0.65625-0.9228515625t0.2666015625-1.09375q0-0.478515625-0.08203125-1.189453125t-0.2802734375-1.3671875t-0.546875-1.134765625t-0.8818359375-0.478515625q-0.806640625,0-1.4560546875,0.73828125t-1.080078125,1.77734375t-0.669921875,2.16015625t-0.2392578125,1.873046875t0.095703125,1.900390625t0.1982421875,2.3857421875t0.1982421875,2.3857421875t0.095703125,1.900390625q0,0.19140625-0.1572265625,0.3076171875t-0.3759765625,0.1845703125t-0.4443359375,0.08203125t-0.3349609375,0.013671875q-0.369140625,0-0.7724609375-0.08203125t-0.5537109375-0.505859375q-0.19140625-0.669921875-0.35546875-1.9072265625t-0.2939453125-2.734375t-0.2255859375-3.14453125t-0.1640625-3.1787109375t-0.1025390625-2.802734375t-0.0341796875-2.0234375z"/></svg>
