<?xml version="1.0" encoding="utf-8"?>
<!-- Generator: Adobe Illustrator 17.1.0, SVG Export Plug-In . SVG Version: 6.00 Build 0)  -->
<!DOCTYPE svg PUBLIC "-//W3C//DTD SVG 1.1//EN" "http://www.w3.org/Graphics/SVG/1.1/DTD/svg11.dtd">
<svg version="1.1" id="screen-cart" xmlns="http://www.w3.org/2000/svg" xmlns:xlink="http://www.w3.org/1999/xlink" x="0px"
	 y="0px" viewBox="0 0 1010 1010" enable-background="new 0 0 1010 1010" xml:space="preserve">
<g id="screen-cart-screen-cart">
	<circle id="screen-cart-label" fill="#ff6b08" cx="505" cy="505" r="505"/>
	<g id="screen-cart-screen-cart_1_">
		<g id="screen-cart-screen">
			<g>
				<path fill="#FFFFFF" d="M787.7998,578.1465v58.498c0,10.7812-8.7285,19.5098-19.5088,19.5098H241.71
					c-10.7808,0-19.5098-8.7285-19.5098-19.5098v-58.498"/>
				<path fill="#454545" d="M768.291,666.2549H241.71c-16.3291,0-29.6099-13.2862-29.6099-29.6104v-58.498
					c0-5.583,4.522-10.1006,10.1001-10.1006c5.5776,0,10.0996,4.5176,10.0996,10.1006v58.498c0,5.1885,4.2217,9.4102,9.4102,9.4102
					h526.581c5.1875,0,9.4092-4.2217,9.4092-9.4102v-58.498c0-5.583,4.5225-10.1006,10.0996-10.1006
					c5.5781,0,10.1006,4.5176,10.1006,10.1006v58.498C797.9004,652.9687,784.6191,666.2549,768.291,666.2549L768.291,666.2549z"/>
			</g>
			<g>
				<path fill="#3BAFDA" d="M222.2002,578.1465V295.3457c0-10.7803,8.729-19.5093,19.5098-19.5093h526.581
					c10.7803,0,19.5088,8.729,19.5088,19.5093v282.8008"/>
				<path fill="#454545" d="M787.7998,588.2461c-5.5771,0-10.0996-4.5176-10.0996-10.0996V295.3457
					c0-5.1875-4.2217-9.4092-9.4092-9.4092H241.71c-5.1885,0-9.4102,4.2217-9.4102,9.4092v282.8008
					c0,5.582-4.522,10.0996-10.0996,10.0996c-5.5781,0-10.1001-4.5176-10.1001-10.0996V295.3457
					c0-16.3232,13.2808-29.6094,29.6099-29.6094h526.581c16.3281,0,29.6094,13.2862,29.6094,29.6094v282.8008
					C797.9004,583.7285,793.3779,588.2461,787.7998,588.2461L787.7998,588.2461z"/>
			</g>
			<g>
				<rect x="436.7363" y="656.1543" fill="#FFFFFF" width="136.5274" height="78.0195"/>
				<path fill="#454545" d="M573.2637,744.2734H436.7363c-5.5776,0-10.1001-4.5175-10.1001-10.0995v-78.0195
					c0-5.582,4.5225-10.0996,10.1001-10.0996h136.5274c5.5781,0,10.0996,4.5176,10.0996,10.0996v78.0195
					C583.3633,739.7559,578.8418,744.2734,573.2637,744.2734L573.2637,744.2734z M446.8364,724.0732h116.3277v-57.8183H446.8364
					V724.0732L446.8364,724.0732z"/>
			</g>
			<g>
				<path fill="#454545" d="M787.7998,588.2461H222.2002c-5.5781,0-10.1001-4.5176-10.1001-10.0996
					c0-5.583,4.522-10.1006,10.1001-10.1006h565.5996c5.5781,0,10.1006,4.5176,10.1006,10.1006
					C797.9004,583.7285,793.3779,588.2461,787.7998,588.2461L787.7998,588.2461z"/>
			</g>
			<g>
				<path fill="#454545" d="M612.2832,744.2734H397.7173c-5.5777,0-10.1001-4.5175-10.1001-10.0995
					c0-5.583,4.5224-10.1006,10.1001-10.1006h214.5659c5.5772,0,10.0996,4.5176,10.0996,10.1006
					C622.3828,739.7559,617.8604,744.2734,612.2832,744.2734L612.2832,744.2734z"/>
			</g>
			<path fill="#454545" d="M514.7549,614.709c0,5.3857-4.3794,9.7549-9.7549,9.7549c-5.3853,0-9.7549-4.3692-9.7549-9.7549
				c0-5.3848,4.3696-9.7549,9.7549-9.7549C510.3755,604.9541,514.7549,609.3242,514.7549,614.709z"/>
		</g>
		<g id="screen-cart-cart">
			<g>
				<polyline fill="#FFFFFF" points="426.2119,346.5166 613.5449,346.5166 589.1143,444.2617 426.2119,444.2617 				"/>
				<polygon fill="#454545" points="597,454.3613 416.1123,454.3613 416.1123,434.1621 581.2285,434.1621 600.6094,356.6167 
					416.1123,356.6167 416.1123,336.417 626.4814,336.417 597,454.3613 				"/>
			</g>
			<g>
				<polygon fill="#454545" points="599.2139,486.9404 416.1123,486.9404 416.1123,324.0381 383.5239,324.0381 383.5239,303.8384 
					436.3125,303.8384 436.3125,466.7402 599.2139,466.7402 599.2139,486.9404 				"/>
			</g>
			<path fill="#454545" d="M442.4966,501.2715c13.5024,0,24.4409,10.9482,24.4409,24.4414
				c0,13.5029-10.9385,24.4316-24.4409,24.4316c-13.4932,0-24.4312-10.9287-24.4312-24.4316
				C418.0654,512.2197,429.0034,501.2715,442.4966,501.2715z"/>
			<path fill="#454545" d="M572.8203,501.2715c13.502,0,24.4414,10.9482,24.4414,24.4414c0,13.5029-10.9395,24.4316-24.4414,24.4316
				c-13.4932,0-24.4316-10.9287-24.4316-24.4316C548.3887,512.2197,559.3271,501.2715,572.8203,501.2715z"/>
			<g>
				<polygon fill="#454545" points="599.6289,423.6279 420.4619,423.6279 420.4619,403.4277 599.6289,403.4277 599.6289,423.6279 
									"/>
			</g>
			<g>
				<polygon fill="#454545" points="604.3135,389.9546 419.1401,389.9546 419.1401,369.7549 604.3135,369.7549 604.3135,389.9546 
									"/>
			</g>
		</g>
	</g>
</g>
</svg>
